<?xml version="1.0" encoding="UTF-8" standalone="no"?>
<!DOCTYPE svg PUBLIC "-//W3C//DTD SVG 1.1//EN" "http://www.w3.org/Graphics/SVG/1.1/DTD/svg11.dtd">
<svg version="1.1" xmlns="http://www.w3.org/2000/svg" xmlns:xlink="http://www.w3.org/1999/xlink" preserveAspectRatio="xMidYMid meet" viewBox="0 0 640 640" width="500" height="500"><defs><path d="M590.67 200C595.82 200 600 204.18 600 209.33C600 257.47 600 392.53 600 440.67C600 445.82 595.82 450 590.67 450C482.53 450 167.47 450 59.33 450C54.18 450 50 445.82 50 440.67C50 392.53 50 257.47 50 209.33C50 204.18 54.18 200 59.33 200C167.47 200 482.53 200 590.67 200Z" id="a1lkO9PqpB"></path><path d="M230 395L230 280L265 375L280 375L315 280L315 395L335 395L335 255L307.5 255L272.5 350L237.5 255L210 255L210 395L230 395Z" id="fmZkPTBcQ"></path><path d="M395 395L395 345L405 332.5L447.5 395L470 395L417.5 317.5L465 255L445 255L395 320L395 255L375 255L375 395L395 395Z" id="b3qdoqmJs"></path></defs><g><g><g><use xlink:href="#a1lkO9PqpB" opacity="1" fill="#4b4b4b" fill-opacity="0.77"></use></g><g><use xlink:href="#fmZkPTBcQ" opacity="1" fill="#ffffff" fill-opacity="1"></use><g><use xlink:href="#fmZkPTBcQ" opacity="1" fill-opacity="0" stroke="#000000" stroke-width="1" stroke-opacity="0.34"></use></g></g><g><use xlink:href="#b3qdoqmJs" opacity="1" fill="#ffffff" fill-opacity="1"></use><g><use xlink:href="#b3qdoqmJs" opacity="1" fill-opacity="0" stroke="#000000" stroke-width="1" stroke-opacity="0.3"></use></g></g></g></g></svg>